<?xml version="1.0" encoding="utf-8"?>
<!-- Generator: Adobe Illustrator 25.3.1, SVG Export Plug-In . SVG Version: 6.00 Build 0)  -->
<svg version="1.1" id="Capa_1" xmlns="http://www.w3.org/2000/svg" xmlns:xlink="http://www.w3.org/1999/xlink" x="0px" y="0px"
	 viewBox="0 0 50.6 50" style="enable-background:new 0 0 50.6 50;" xml:space="preserve">
<style type="text/css">
	.st0{filter:url(#Adobe_OpacityMaskFilter);}
	.st1{fill-rule:evenodd;clip-rule:evenodd;fill:#FFFFFF;}
	.st2{mask:url(#b_1_);fill-rule:evenodd;clip-rule:evenodd;fill:#FFFFFF;}
</style>
<g transform="translate(1 2)">
	<defs>
		<filter id="Adobe_OpacityMaskFilter" filterUnits="userSpaceOnUse" x="0" y="0" width="48.3" height="46">
			<feColorMatrix  type="matrix" values="1 0 0 0 0  0 1 0 0 0  0 0 1 0 0  0 0 0 1 0"/>
		</filter>
	</defs>
	<mask maskUnits="userSpaceOnUse" x="0" y="0" width="48.3" height="46" id="b_1_">
		<g class="st0">
			<path id="a_1_" class="st1" d="M0,0h262.3v46H0V0z"/>
		</g>
	</mask>
	<path class="st2" d="M34.6,21.1c-0.1-1.7-0.6-3.3-1.4-4.8L25.7,3.2c-0.6-1-1-2.1-1.2-3.2l-0.3,0.5c-1.9,3.2-1.9,7.2,0,10.5l6,10.5
		c1.9,3.2,1.9,7.2,0,10.5l-0.3,0.5c-0.2-1.1-0.6-2.2-1.2-3.2l-5.5-9.6l-3.5-6.1c-0.6-1-1-2.1-1.2-3.2L18.1,11
		c-1.9,3.2-1.9,7.2,0,10.4L24.2,32c1.9,3.2,1.9,7.2,0,10.5L23.8,43c-0.2-1.1-0.6-2.2-1.2-3.2l-7.6-13.1c-1-1.7-1.5-3.7-1.4-5.7
		C5.6,23.2,0,27.7,0,32.9C0,40.1,10.8,46,24.2,46s24.2-5.9,24.2-13.1C48.3,27.7,42.7,23.2,34.6,21.1"/>
</g>
</svg>
